<svg width="40" height="31" viewBox="0 0 40 31" fill="none" xmlns="http://www.w3.org/2000/svg">
<path d="M17.8018 0.738635C17.2759 1.01989 16.8449 1.61648 16.7587 2.17898C16.7156 2.46023 16.7845 3.07386 17 4.33523L17.2931 6.09943L16.388 6.28693C10.2588 7.53977 5.13815 12.2358 3.41404 18.1932C2.8968 19.9744 2.82784 20.4773 2.78474 23.1875L2.74163 25.7273H1.54338C-0.0600482 25.7273 0.000295685 25.6676 0.000295685 27.2443C0.000295685 28.054 0.0347779 28.4631 0.112363 28.5568C0.164086 28.6335 0.870973 29.1023 1.67268 29.5966L3.13818 30.5H20H36.8618L38.3273 29.5966C39.129 29.1023 39.8359 28.6335 39.8963 28.5568C39.9652 28.4631 39.9997 28.054 39.9997 27.2443C39.9997 25.6676 40.0601 25.7273 38.448 25.7273H37.2411V23.6136C37.2411 20.6903 36.9911 19.1477 36.1894 17.017L35.8446 16.0966L36.3446 15.5597C36.9653 14.8949 37.3532 14.2642 37.6377 13.4545C38.448 11.1619 37.8877 8.70739 36.1722 7.01136C34.4567 5.31534 31.974 4.76136 29.655 5.5625C28.8361 5.84375 28.1982 6.22727 27.5258 6.84091L26.9827 7.34375L26.1809 7.03693C25.3361 6.72159 24.0948 6.37216 23.2069 6.2017C22.6896 6.10795 22.6638 6.09091 22.7069 5.87784C22.9482 4.76136 23.2586 2.50284 23.2155 2.23011C23.1465 1.78693 22.9138 1.36079 22.5689 1.03693C22.0517 0.542613 21.8276 0.499999 19.9397 0.499999C18.2414 0.499999 18.2328 0.508522 17.8018 0.738635ZM21.2845 1.94034C21.3965 1.96591 21.5689 2.09375 21.6551 2.21307C21.8189 2.42614 21.8189 2.4517 21.5517 4.00284C21.4138 4.86364 21.2758 5.65625 21.25 5.75852C21.2069 5.95454 21.181 5.95454 20 5.95454C19.3362 5.95454 18.7931 5.92898 18.7931 5.88636C18.7931 5.85227 18.6552 5.08523 18.5 4.17329C18.1638 2.28125 18.1897 2.05966 18.75 1.92329C19.0086 1.86364 21.0517 1.87216 21.2845 1.94034ZM33.3188 6.96023C34.8187 7.50568 36.0429 8.87784 36.3791 10.3949C36.5342 11.0767 36.448 12.3466 36.2239 12.9858C35.6808 14.4602 34.2843 15.679 32.7498 16.0114C32.0602 16.1648 30.7757 16.0795 30.1292 15.858C28.6378 15.321 27.4051 13.9403 27.0689 12.4233C26.9137 11.7415 26.9999 10.4716 27.224 9.83239C27.7413 8.42614 29.0171 7.25852 30.4912 6.84091C31.1291 6.66193 32.6722 6.73011 33.3188 6.96023ZM22.2155 7.53125C22.6982 7.59943 23.4051 7.73579 23.7844 7.82954C24.5258 8.01704 25.9568 8.49432 26.0516 8.57954C26.0775 8.61364 26.0085 8.86932 25.8965 9.15057C24.7327 11.9545 25.9654 15.2955 28.724 16.8125C30.3447 17.6989 32.1378 17.8352 33.8877 17.2045L34.5688 16.9574L34.6981 17.2557C35.4912 19.1307 35.8532 21.4403 35.8618 24.5937V25.7273H20H4.13817V24.5937C4.14679 22.8636 4.28472 20.9801 4.48299 20.0085C5.5778 14.6818 9.35361 10.267 14.4225 8.39204C15.5173 7.98295 16.6811 7.68466 17.6897 7.53977C18.7759 7.37784 21.1293 7.37784 22.2155 7.53125ZM38.6204 27.4062C38.6118 27.7301 38.6118 27.7301 37.4222 28.429L36.2325 29.1364H20H3.76748L2.57784 28.429C1.38821 27.7301 1.38821 27.7301 1.37959 27.4062V27.0909H20H38.6204V27.4062Z" fill="currentColor"/>
<path d="M31.0343 9.70455V10.7273H29.9998H28.9653V11.4091V12.0909H29.9998H31.0343V13.1136V14.1364H31.7239H32.4136V13.1136V12.0909H33.448H34.4825V11.4091V10.7273H33.448H32.4136V9.70455V8.68182H31.7239H31.0343V9.70455Z" fill="currentColor"/>
<path d="M11.8363 11.1364C9.32776 12.8665 7.47434 15.2017 6.42263 17.9375C6.10367 18.7557 5.68988 20.3835 5.68988 20.7926C5.68988 21.3892 6.19849 21.7045 6.75883 21.4574C7.00883 21.3381 7.09503 21.1506 7.28468 20.2301C7.61227 18.7216 8.27605 17.179 9.19845 15.8068C9.9312 14.7074 11.6208 13.0284 12.6984 12.3125C13.5432 11.7585 13.6811 11.554 13.526 11.0938C13.3191 10.4716 12.7932 10.4801 11.8363 11.1364Z" fill="currentColor"/>
</svg>
