<svg version="1.1" id="icon" xmlns="http://www.w3.org/2000/svg" xmlns:xlink="http://www.w3.org/1999/xlink" x="0px" y="0px"
	 viewBox="0 0 27 27" style="enable-background:new 0 0 27 27;" xml:space="preserve">
  <g>
    <defs>
      <rect id="SVGID_1_" y="0" width="27" height="27"/>
    </defs>
    <clipPath id="SVGID_2_">
      <use xlink:href="#SVGID_1_" style="overflow:visible;"/>
    </clipPath>
    <g clip-path="url(#SVGID_2_)">
      <path fill="none" stroke="currentColor" stroke-width="2" stroke-miterlimit="10" d="M18.2,11.2h2.6c0,0,1.3,0.3,1.8,2.1l2.7,9.8c0,0,0.7,2.3-1.4,2.3H3c0,0-2.1-0.1-1.1-2.5l2.5-6.7H2.6c0,0-1.3,0.4-1-1.1l2.1-4L18.2,11.2L18.2,11.2z"/>
      <path fill="none" stroke="currentColor" stroke-width="2" stroke-miterlimit="10" d="M19.4,11.7l-3.7,13.8"/>
      <path fill="none" stroke="currentColor" stroke-width="2" stroke-miterlimit="10" d="M4.4,16.3h13.7"/>
      <path fill="currentColor" stroke="#FFFFFF" stroke-width="0.5" d="M12.4,0.7c0.4,0.4,0.6,1.2,0.2,1.8c0,0,0,0,0,0c0,0,0,0,0,0c0,0,0,0,0,0c0,0.1-0.1,0.2-0.2,0.3c0,0,0,0,0,0.1l0,0c0,0-0.1,0.1-0.1,0.1c-0.1,0.1-0.1,0.3-0.1,0.5c0,0.1,0.1,0.2,0.2,0.3c0.1,0.1,0.1,0.2,0.2,0.3c0.1,0.2,0.3,0.3,0.4,0.4c0.5,0.7,0.6,1.4,0.5,2c-0.1,0.7-0.4,1.4-1,2v0l0,0c-0.3,0.3-0.6,0.5-0.9,0.4c-0.3,0-0.6-0.2-0.8-0.4c-0.5-0.5-0.7-1.3-0.1-1.9v0l0,0c0.1-0.1,0.2-0.2,0.2-0.3c0-0.1,0-0.2,0-0.3c0-0.1-0.1-0.1-0.1-0.2c0,0,0,0,0,0c0,0-0.1-0.1-0.1-0.1l0,0l0,0c-0.6-0.7-0.9-1.3-1-2.1c-0.1-1,0.4-2,1.1-2.9c0.3-0.3,0.6-0.4,0.9-0.4C11.8,0.3,12.1,0.4,12.4,0.7z M12.5,2.7l0.1,0.1c0,0,0,0,0,0.1C12.6,2.8,12.5,2.8,12.5,2.7C12.5,2.7,12.5,2.7,12.5,2.7z"/>
      <path fill="currentColor" stroke="#FFFFFF" stroke-width="0.5" d="M17.8,2.7L18,2.8c0,0,0,0,0,0.1C17.9,2.8,17.9,2.8,17.8,2.7C17.8,2.7,17.8,2.7,17.8,2.7z M17.8,2.6C17.8,2.6,17.8,2.6,17.8,2.6L17.8,2.6c-0.1,0.1-0.1,0.1-0.1,0.2c0,0,0,0,0,0.1l0,0c0,0-0.1,0.1-0.1,0.1c-0.1,0.1-0.1,0.3-0.1,0.5c0,0.1,0.1,0.2,0.2,0.3c0.1,0.1,0.1,0.2,0.2,0.3c0.1,0.2,0.3,0.3,0.4,0.4c0.5,0.7,0.6,1.4,0.5,2c-0.1,0.7-0.4,1.4-1,2v0l0,0c-0.3,0.3-0.6,0.5-0.9,0.4c-0.3,0-0.6-0.2-0.8-0.4c-0.5-0.5-0.7-1.3-0.1-1.9v0l0,0c0.1-0.1,0.2-0.2,0.2-0.3c0-0.1,0-0.2,0-0.3c0-0.1-0.1-0.1-0.1-0.2c0,0,0,0,0,0c0,0-0.1-0.1-0.1-0.1l0,0l0,0c-0.6-0.7-0.9-1.3-1-2.1c-0.1-1,0.4-2,1.1-2.9c0.3-0.3,0.6-0.4,0.9-0.4c0.3,0,0.6,0.2,0.8,0.4C18.1,1.1,18.3,1.9,17.8,2.6C17.8,2.6,17.8,2.6,17.8,2.6z"/>
    </g>
  </g>
</svg>
