<svg width="41" height="36" viewBox="0 0 41 36" fill="none" xmlns="http://www.w3.org/2000/svg">
<g clip-path="url(#clip0_14_2)">
<mask id="mask0_14_2" style="mask-type:luminance" maskUnits="userSpaceOnUse" x="0" y="0" width="41" height="34">
<path d="M40.4651 0H0V33.4021H40.4651V0Z" fill="white"/>
</mask>
<g mask="url(#mask0_14_2)">
<path fill-rule="evenodd" clip-rule="evenodd" d="M6.70285 15.9588V36H3.35144V15.9588H6.70285Z" fill="currentColor"/>
<path fill-rule="evenodd" clip-rule="evenodd" d="M13.5297 15.9588V25.9794H10.1783V15.9588H13.5297Z" fill="currentColor"/>
<path fill-rule="evenodd" clip-rule="evenodd" d="M30.2868 15.9588V25.9794H26.9354V15.9588H30.2868Z" fill="currentColor"/>
<path fill-rule="evenodd" clip-rule="evenodd" d="M37.1137 15.9588V36H33.7623V15.9588H37.1137Z" fill="currentColor"/>
<path fill-rule="evenodd" clip-rule="evenodd" d="M11.4196 3.34021C11.2955 3.34021 11.1714 3.34021 11.0472 3.34021C10.799 3.34021 10.5507 3.34021 10.1784 3.46392C9.55772 3.58763 8.56471 3.83506 7.94408 4.82475L0.496516 12.866C0.37239 12.9897 0.248263 13.1134 0.248263 13.1134C0.248263 13.1134 0.248263 13.2371 0.124137 13.2371C0.124137 13.2371 0.124137 13.2371 1.1136e-05 13.3608C1.1136e-05 13.4845 -0.124115 13.6083 -0.124115 13.732C1.1136e-05 13.8557 1.1136e-05 14.2268 1.1136e-05 14.5979C1.1136e-05 15.0928 0.248263 15.5876 0.744768 15.9588C1.11715 16.3299 1.61365 16.3299 2.11016 16.3299H13.6539C15.5158 16.3299 17.3777 16.3299 19.1154 16.3299C21.8462 16.3299 24.577 16.3299 27.3078 16.3299C29.6662 16.3299 31.9004 16.3299 34.1347 16.4536C34.2588 16.4536 34.5071 16.4536 34.7553 16.4536C34.8795 16.4536 35.0036 16.4536 35.2518 16.4536C35.7483 16.4536 36.2448 16.5773 36.8655 16.5773C37.362 16.5773 37.9826 16.5773 38.6032 16.3299C39.0997 16.2062 39.8445 15.8351 40.2169 14.9691C40.4651 14.3505 40.4651 13.732 40.341 13.3608C40.2169 12.866 40.0927 12.4948 39.8445 12.2474C39.4721 11.7526 39.0997 11.2577 38.8515 10.8866C38.8515 10.8866 38.8515 10.8866 38.7274 10.7629C37.7344 9.64949 36.7413 8.53609 35.7483 7.42268C35.376 7.05155 35.1277 6.68042 34.7553 6.30928C34.8795 6.43299 34.7553 6.30928 34.6312 6.18557C34.1347 5.69073 33.6382 5.07217 33.1417 4.57732C32.3969 3.95877 31.4039 3.34021 30.1627 3.34021H11.4196ZM10.6749 6.18557C10.1784 6.18557 9.9301 6.43299 9.80597 6.5567L3.35142 13.6083H13.6539C15.3917 13.6083 17.2535 13.6083 19.1154 13.6083C21.8462 13.6083 24.577 13.6083 27.3078 13.6083C29.6662 13.6083 31.9004 13.6083 34.2588 13.732C34.5071 13.732 34.7553 13.732 35.0036 13.8557C35.1277 13.8557 35.2518 13.8557 35.376 13.8557C35.8725 13.8557 36.2448 13.9794 36.7413 13.9794C37.1137 13.9794 37.4861 13.9794 37.7344 13.8557C37.4861 13.4845 37.2378 13.2371 36.9896 12.866C36.9896 12.866 36.9896 12.866 36.8655 12.7423C35.9966 11.6289 35.0036 10.6392 34.0106 9.52578C33.6382 9.15464 33.3899 8.78351 33.0176 8.41238C32.8934 8.28866 32.7693 8.04124 32.6452 7.91753C32.2728 7.42268 31.9004 7.05155 31.4039 6.68042C30.9074 6.30928 30.4109 6.06186 30.0385 6.06186H11.2955H11.1714C11.0472 6.06186 10.799 6.06186 10.6749 6.18557Z" fill="currentColor"/>
</g>
<path d="M30.1831 5.44846L37.3817 13.7268H3.52504L10.1699 5.44846H30.1831Z" fill="currentColor" stroke="white"/>
</g>
<defs>
<clipPath id="clip0_14_2">
<rect width="40.4651" height="36" fill="white"/>
</clipPath>
</defs>
</svg>
