<?xml version="1.0" encoding="utf-8"?>
<svg version="1.1" id="icon" xmlns="http://www.w3.org/2000/svg" xmlns:xlink="http://www.w3.org/1999/xlink" x="0px" y="0px"
	 viewBox="0 0 32.6 29.1" enable-background="new 0 0 32.6 29.1" xml:space="preserve">
<g>
	<defs>
		<rect id="SVGID_1_" width="32.6" height="27"/>
	</defs>
	<clipPath id="SVGID_2_">
		<use xlink:href="#SVGID_1_"  overflow="visible"/>
	</clipPath>
	<g clip-path="url(#SVGID_2_)">
		<path fill-rule="evenodd" clip-rule="evenodd" fill="currentColor" d="M5.4,12.9v16.2H2.7V12.9H5.4z"/>
		<path fill-rule="evenodd" clip-rule="evenodd" fill="currentColor" d="M10.9,12.9V21H8.2v-8.1H10.9z"/>
		<path fill-rule="evenodd" clip-rule="evenodd" fill="currentColor" d="M24.4,12.9V21h-2.7v-8.1H24.4z"/>
		<path fill-rule="evenodd" clip-rule="evenodd" fill="currentColor" d="M29.9,12.9v16.2h-2.7V12.9H29.9z"/>
		<path fill-rule="evenodd" clip-rule="evenodd" fill="currentColor" d="M9.2,2.7C9.2,2.7,9.2,2.7,9.2,2.7c-0.1,0-0.2,0-0.3,0c-0.2,0-0.4,0-0.7,0.1C7.7,2.9,6.9,3.1,6.4,3.9l-6,6.5
			l0,0c-0.1,0.1-0.2,0.2-0.2,0.2c0,0,0,0,0,0c0,0,0,0.1-0.1,0.1c0,0,0,0-0.1,0.1c0,0.1-0.1,0.2-0.1,0.3C0,11.2,0,11.5,0,11.8c0,0.4,0.2,0.8,0.6,1.1
			c0.3,0.3,0.7,0.3,1.1,0.3H11c1.5,0,3,0,4.4,0c2.2,0,4.4,0,6.6,0l0,0h0c1.9,0,3.7,0,5.5,0.1c0.1,0,0.3,0,0.5,0c0.1,0,0.2,0,0.4,0
			c0.4,0,0.8,0.1,1.3,0.1c0.4,0,0.9,0,1.4-0.2c0.4-0.1,1-0.4,1.3-1.1c0.2-0.5,0.2-1,0.1-1.3c-0.1-0.4-0.2-0.7-0.4-0.9
			c-0.3-0.4-0.6-0.8-0.8-1.1c0,0,0,0-0.1-0.1l0,0l0,0c-0.8-0.9-1.6-1.8-2.4-2.7c-0.3-0.3-0.5-0.6-0.8-0.9C28.1,5.2,28,5.1,27.9,5
			c-0.4-0.4-0.8-0.9-1.2-1.3c-0.6-0.5-1.4-1-2.4-1H9.2z M8.6,5C8.2,5,8,5.2,7.9,5.3l0,0L2.7,11H11c1.4,0,2.9,0,4.4,0
			c2.2,0,4.4,0,6.6,0c1.9,0,3.7,0,5.6,0.1l0,0l0,0c0.2,0,0.4,0,0.6,0.1c0.1,0,0.2,0,0.3,0c0.4,0,0.7,0.1,1.1,0.1
			c0.3,0,0.6,0,0.8-0.1c0,0,0,0,0,0c-0.2-0.3-0.4-0.5-0.6-0.8c0,0,0,0-0.1-0.1c-0.7-0.9-1.5-1.7-2.3-2.6c-0.3-0.3-0.5-0.6-0.8-0.9
			c-0.1-0.1-0.2-0.3-0.3-0.4c-0.3-0.4-0.6-0.7-1-1c-0.4-0.3-0.8-0.5-1.1-0.5H9.1l0,0c0,0,0,0,0,0c0,0-0.1,0-0.1,0
			C8.9,4.9,8.7,4.9,8.6,5z M30.7,11.1C30.7,11.1,30.7,11.1,30.7,11.1C30.7,11.1,30.7,11.1,30.7,11.1z"/>
	</g>
</g>
</svg>
